HIERARCHY
ROOT Hips
{
	OFFSET 0.000000 0.000000 0.000000
	CHANNELS 6 Xposition Yposition Zposition Zrotation Yrotation Xrotation 
	JOINT LeftUpLeg_virtual
	{
		OFFSET 0.000000 0.000000 0.000000
		CHANNELS 3 Zrotation Yrotation Xrotation
		JOINT LeftUpLeg
		{
			OFFSET 10.205400 -3.823500 0.155100
			CHANNELS 3 Zrotation Yrotation Xrotation
			JOINT LeftLeg
			{
				OFFSET 0.708757 -12.982077 0.567790
				CHANNELS 3 Zrotation Yrotation Xrotation
				JOINT LeftFoot
				{
					OFFSET -0.708756 -10.717838 -2.184338
					CHANNELS 3 Zrotation Yrotation Xrotation
					JOINT LeftToeBase
					{
						OFFSET 0.108149 -7.191104 7.560241
						CHANNELS 3 Zrotation Yrotation Xrotation
						End Site
						{
							OFFSET 0.000000 0.000000 0.000000
						}
					}
				}
			}
		}
	}
	JOINT RightUpLeg_virtual
	{
		OFFSET 0.000000 0.000000 0.000000
		CHANNELS 3 Zrotation Yrotation Xrotation
		JOINT RightUpLeg
		{
			OFFSET -10.205400 -3.823500 0.005500
			CHANNELS 3 Zrotation Yrotation Xrotation
			JOINT RightLeg
			{
				OFFSET -0.708756 -12.982134 0.610632
				CHANNELS 3 Zrotation Yrotation Xrotation
				JOINT RightFoot
				{
					OFFSET 0.708754 -10.717769 -1.945823
					CHANNELS 3 Zrotation Yrotation Xrotation
					JOINT RightToeBase
					{
						OFFSET -0.108140 -7.191069 7.372968
						CHANNELS 3 Zrotation Yrotation Xrotation
						End Site
						{
							OFFSET 0.000000 0.000000 0.000000
						}
					}
				}
			}
		}
	}
	JOINT Spine_virtual
	{
		OFFSET 0.000000 0.000000 0.000000
		CHANNELS 3 Zrotation Yrotation Xrotation
		JOINT Spine
		{
			OFFSET 0.000000 6.876099 0.125700
			CHANNELS 3 Zrotation Yrotation Xrotation
			JOINT Spine1
			{
				OFFSET 0.000000 8.022060 0.146608
				CHANNELS 3 Zrotation Yrotation Xrotation
				JOINT Spine2
				{
					OFFSET 0.000000 9.168068 0.167552
					CHANNELS 3 Zrotation Yrotation Xrotation
					JOINT Neck_virtual
					{
						OFFSET 0.000000 0.000000 0.000000
						CHANNELS 3 Zrotation Yrotation Xrotation
						JOINT Neck
						{
							OFFSET 0.000000 10.314075 0.188496
							CHANNELS 3 Zrotation Yrotation Xrotation
							JOINT Head
							{
								OFFSET 0.000000 7.643700 -2.377400
								CHANNELS 3 Zrotation Yrotation Xrotation
								End Site
								{
									OFFSET 0.000000 0.000000 0.000000
								}
							}
						}
					}
					JOINT LeftShoulder_virtual
					{
						OFFSET 0.000000 0.000000 0.000000
						CHANNELS 3 Zrotation Yrotation Xrotation
						JOINT LeftShoulder
						{
							OFFSET 4.392200 8.824978 0.174984
							CHANNELS 3 Zrotation Yrotation Xrotation
							JOINT LeftArm
							{
								OFFSET 8.771219 -2.981674 -0.026999
								CHANNELS 3 Zrotation Yrotation Xrotation
								JOINT LeftForeArm
								{
									OFFSET 8.512804 0.000000 -0.000000
									CHANNELS 3 Zrotation Yrotation Xrotation
									JOINT LeftHand
									{
										OFFSET 18.484802 0.000000 -0.000000
										CHANNELS 3 Zrotation Yrotation Xrotation
										End Site
										{
											OFFSET 0.000000 0.000000 0.000000
										}
									}
								}
							}
						}
					}
					JOINT RightShoulder_virtual
					{
						OFFSET 0.000000 0.000000 0.000000
						CHANNELS 3 Zrotation Yrotation Xrotation
						JOINT RightShoulder
						{
							OFFSET -4.392200 8.824993 0.141379
							CHANNELS 3 Zrotation Yrotation Xrotation
							JOINT RightArm
							{
								OFFSET -8.771282 -2.981682 -0.094208
								CHANNELS 3 Zrotation Yrotation Xrotation
								JOINT RightForeArm
								{
									OFFSET -8.494598 0.000000 0.000000
									CHANNELS 3 Zrotation Yrotation Xrotation
									JOINT RightHand
									{
										OFFSET -18.483803 0.000000 0.000001
										CHANNELS 3 Zrotation Yrotation Xrotation
										End Site
										{
											OFFSET 0.000000 0.000000 0.000000
										}
									}
								}
							}
						}
					}
				}
			}
		}
	}
}
MOTION
Frames: 11
Frame Time: 0.033333
-40.543686 32.350414 73.795891 -179.855587 -20.236259 -179.810508 -3.685498 -0.213742 33.064345 0.175749 1.163800 -80.327034 8.825153 9.957041 51.565644 -5.716978 0.130560 8.203333 0.000000 0.000000 0.000000 1.453772 -1.904853 31.394483 2.305905 -2.556388 -81.304079 1.016962 -1.178864 53.153314 -10.511418 6.086254 14.427900 0.000000 0.000000 0.000000 4.107448 -1.216618 48.932940 1.592970 3.965460 37.010480 -0.949478 -5.005757 2.777811 -0.020948 0.113589 0.039285 -0.425716 -4.595090 5.153563 4.183079 -12.822658 -14.342654 0.000000 0.000000 0.000000 0.306879 -3.314238 -0.091426 -2.370354 -16.618074 1.806223 -4.717228 -22.319871 -38.495295 -21.220916 -54.587705 12.549183 0.000000 0.000000 0.000000 -3.062992 -2.268022 0.153647 18.399071 38.384403 2.174641 16.722144 -3.700265 -16.829917 -16.438469 53.540306 -17.060703 0.000000 0.000000 0.000000 
-40.487309 32.572384 73.652687 -179.840288 -20.876980 -179.837897 -3.385400 -0.680410 32.400290 -0.415153 1.248949 -78.703211 9.008078 9.606449 50.314906 -6.401410 0.314135 9.003653 0.000000 0.000000 0.000000 1.904695 -2.397504 30.548322 1.484441 -2.428841 -79.720780 1.050031 -1.247266 52.804725 -10.740587 5.813926 14.260654 0.000000 0.000000 0.000000 4.585994 -1.537506 47.848265 2.006905 4.515916 36.485761 -0.942740 -4.697731 3.307083 -0.008955 0.035342 -0.000299 -0.348812 -4.351152 5.827342 4.363675 -13.034823 -13.703403 0.000000 0.000000 0.000000 0.294490 -3.117999 0.496229 -3.722129 -16.965254 1.837631 -7.703721 -25.627537 -31.806559 -23.550726 -59.338225 15.320393 0.000000 0.000000 0.000000 -3.062693 -2.016930 0.768156 18.150557 38.953716 2.043382 17.634661 -4.733846 -15.903201 -17.209425 55.327442 -18.096561 0.000000 0.000000 0.000000 
-40.446236 32.809891 73.534203 -179.666951 -21.724118 -179.854959 -3.015741 -1.264893 31.582597 -1.116755 1.572130 -76.995206 9.015935 9.641286 48.881133 -7.235514 0.743266 10.058309 0.000000 0.000000 0.000000 2.486742 -2.627415 29.393924 0.772430 -2.572808 -77.701024 1.362063 -1.227515 52.273302 -11.093442 5.311112 13.933079 0.000000 0.000000 0.000000 5.166492 -1.871602 46.401703 2.252140 4.929072 35.969716 -0.950654 -4.492807 3.926263 -0.061155 0.040601 0.104809 -0.213187 -4.144137 6.382716 4.545421 -13.124010 -12.992262 0.000000 0.000000 0.000000 0.390871 -2.903004 0.996433 -4.836673 -17.134329 1.861771 -10.367974 -27.363893 -26.031938 -26.208088 -63.385078 18.324008 0.000000 0.000000 0.000000 -2.975406 -1.793912 1.323027 18.083440 39.439018 1.859930 18.541534 -4.957560 -15.086843 -17.937520 56.684587 -19.026566 0.000000 0.000000 0.000000 
-40.394970 33.032486 73.448891 -179.673208 -22.724466 -179.849440 -2.827443 -1.707052 30.545610 -1.375165 1.636042 -75.268726 9.023068 9.727503 47.748056 -7.714487 0.736999 11.082400 0.000000 0.000000 0.000000 2.801072 -2.959856 28.247880 0.026269 -2.280657 -75.615713 1.531649 -0.852623 51.836071 -11.543048 4.819294 13.714287 0.000000 0.000000 0.000000 5.554482 -2.095875 45.015776 2.427322 5.166745 35.448084 -0.891003 -4.363048 4.523646 -0.030609 0.032373 0.004344 -0.272833 -3.886520 7.174321 4.648304 -13.176335 -12.181517 0.000000 0.000000 0.000000 0.288951 -2.820761 1.718632 -5.567152 -17.168901 1.874258 -11.961318 -27.607080 -22.016427 -28.122886 -66.292518 20.746696 0.000000 0.000000 0.000000 -3.086002 -1.635953 2.059724 18.206385 39.757551 1.704748 19.161840 -4.389687 -14.260676 -18.276258 57.495453 -19.482116 0.000000 0.000000 0.000000 
-40.349182 33.205460 73.369804 -179.600330 -23.476725 -179.874384 -2.557745 -1.626945 29.379464 -1.305684 1.645848 -74.149927 8.604438 9.595710 47.024995 -8.037576 0.611765 12.896957 0.000000 0.000000 0.000000 3.067114 -2.845092 27.244161 -0.380147 -2.109985 -73.725567 1.221928 -0.787886 51.561696 -11.570507 4.517067 13.384278 0.000000 0.000000 0.000000 5.951853 -2.110772 43.809107 2.343343 5.311532 34.927009 -0.943076 -4.274405 5.093748 -0.040688 0.048818 0.014175 -0.241697 -3.859231 7.812954 4.672841 -13.109548 -11.422322 0.000000 0.000000 0.000000 0.331340 -2.754849 2.298609 -5.917542 -17.126807 1.842767 -12.537669 -26.767093 -20.141424 -29.192341 -67.706449 22.009730 0.000000 0.000000 0.000000 -3.002716 -1.501292 2.563363 18.402087 39.779787 1.663695 19.583045 -3.391273 -13.347989 -18.433263 58.063179 -19.669399 0.000000 0.000000 0.000000 
-40.311382 33.319530 73.298203 -179.645040 -24.239841 -179.859931 -2.448340 -1.371625 28.538422 -0.894591 1.558994 -73.606340 7.956887 9.384624 46.542719 -8.652415 0.354805 14.907482 0.000000 0.000000 0.000000 2.977574 -2.692299 26.614254 -0.212219 -2.036241 -72.291248 0.682818 -0.508396 51.358095 -11.446406 4.379098 13.208498 0.000000 0.000000 0.000000 6.037622 -1.979581 42.953759 2.173324 5.199906 34.439450 -0.969435 -4.247918 5.555633 0.007408 0.081216 0.005860 -0.362510 -3.805579 8.406305 4.578005 -12.994221 -10.799620 0.000000 0.000000 0.000000 0.226852 -2.770117 2.889142 -5.837514 -17.103711 1.705348 -12.359181 -25.370531 -19.759102 -28.606675 -67.734781 21.695802 0.000000 0.000000 0.000000 -3.106891 -1.464879 3.036475 18.640713 39.343153 1.445352 19.694277 -1.971451 -12.161578 -18.594288 58.503002 -19.885348 0.000000 0.000000 0.000000 
-40.302608 33.367096 73.250183 -179.556357 -24.750229 -179.939298 -2.161401 -0.925850 28.057217 0.051332 1.281257 -73.957534 7.234977 8.569395 46.626655 -9.248520 0.037882 16.478706 0.000000 0.000000 0.000000 3.003820 -2.460404 26.347284 -0.602840 -1.671226 -71.528719 0.477959 -0.487205 51.487264 -11.442413 4.074738 13.026022 0.000000 0.000000 0.000000 6.173711 -1.803685 42.579167 1.869739 4.963437 34.069940 -1.060109 -4.286983 5.917301 -0.086892 0.088768 0.024386 -0.348255 -4.073063 8.833517 4.380609 -12.824718 -10.343302 0.000000 0.000000 0.000000 0.364554 -2.817988 3.331758 -5.338394 -17.065559 1.464522 -11.729166 -23.779549 -21.008694 -26.545272 -66.149016 19.858673 0.000000 0.000000 0.000000 -3.003177 -1.586547 3.375482 18.993407 38.701938 1.214990 19.562131 -0.274555 -11.062531 -18.363479 59.127705 -19.727439 0.000000 0.000000 0.000000 
-40.360264 33.342533 73.258163 -179.595535 -25.022108 -179.818623 -2.124742 -0.602922 28.000062 1.413571 1.099481 -74.718267 6.663119 7.241664 46.409930 -9.362371 -0.161445 16.235904 0.000000 0.000000 0.000000 2.817886 -2.151000 26.363482 -0.651304 -1.478179 -71.484459 0.286189 -0.076718 51.718828 -11.276137 3.948246 12.852901 0.000000 0.000000 0.000000 5.926402 -1.581605 42.528296 1.636241 4.553488 33.817458 -1.090637 -4.356263 6.116645 -0.059952 0.104423 0.018666 -0.521390 -4.099432 9.136855 4.086223 -12.570516 -10.179726 0.000000 0.000000 0.000000 0.244574 -2.846512 3.706730 -4.533219 -17.007185 1.259111 -10.419625 -22.273822 -24.259623 -23.198565 -62.900810 16.661953 0.000000 0.000000 0.000000 -3.098168 -1.654024 3.649905 19.543140 38.017762 0.976855 19.426323 1.544301 -9.923233 -18.219492 59.815955 -19.621858 0.000000 0.000000 0.000000 
-40.510624 33.255257 73.317703 -179.507125 -24.877438 -179.802203 -2.148608 -0.251622 28.343128 3.553480 0.905223 -75.688325 5.693215 5.342691 44.453467 -10.140260 -0.735296 17.082861 0.000000 0.000000 0.000000 2.616748 -1.845145 26.698409 -0.710814 -1.366505 -72.016818 0.164744 0.320413 52.014578 -10.854327 4.065394 12.795929 0.000000 0.000000 0.000000 5.673268 -1.334902 42.980827 1.412424 4.151377 33.758627 -1.118417 -4.563115 6.187692 -0.052333 0.041784 0.050614 -0.592147 -4.124010 9.254660 3.710150 -12.271935 -10.116104 0.000000 0.000000 0.000000 0.242430 -2.934447 3.825661 -3.579374 -17.054243 1.132345 -8.538110 -20.976705 -29.611626 -19.829929 -58.217671 13.307106 0.000000 0.000000 0.000000 -3.112651 -1.754510 3.722621 20.161593 37.430663 0.743045 19.390531 3.539131 -9.050738 -18.087389 60.408433 -19.619018 0.000000 0.000000 0.000000 
-40.773865 33.123360 73.397629 -179.611518 -24.321983 -179.784499 -2.487546 -0.295230 28.627452 4.798003 1.545703 -76.152518 5.535236 3.189308 42.449991 -12.503660 -2.247000 17.368476 0.000000 0.000000 0.000000 2.106770 -1.501587 27.319529 -0.754389 -1.387139 -72.917310 0.099876 0.798500 52.274341 -10.214313 4.374921 12.901464 0.000000 0.000000 0.000000 5.265364 -0.988131 43.758300 1.228359 3.716322 33.881174 -1.118783 -4.716187 6.158614 -0.035900 0.065318 0.053131 -0.641182 -4.350607 9.171296 3.226187 -12.018546 -10.329653 0.000000 0.000000 0.000000 0.228088 -3.102326 3.877863 -2.592256 -17.338295 0.795204 -6.174393 -19.859048 -36.708438 -17.211880 -52.719846 10.477594 0.000000 0.000000 0.000000 -3.091862 -1.938729 3.691695 20.801457 36.963748 0.633267 19.431583 5.848936 -8.681546 -17.794227 60.635558 -19.437054 0.000000 0.000000 0.000000 
-41.119843 32.993633 73.504387 -179.681664 -23.614201 -179.792572 -2.774774 -0.187944 29.205281 5.705205 1.783347 -76.734969 4.757846 2.454349 41.233456 -13.199040 -2.568224 17.576088 0.000000 0.000000 0.000000 1.681678 -1.187084 28.107685 -0.975423 -1.559286 -74.035569 0.064454 1.185002 52.392018 -9.316598 4.832939 13.191478 0.000000 0.000000 0.000000 4.931074 -0.677059 44.641041 1.121234 3.278906 34.078457 -1.098464 -4.957300 6.065451 -0.037925 -0.003297 -0.001976 -0.701758 -4.607628 9.019585 2.758431 -11.733343 -10.641051 0.000000 0.000000 0.000000 0.220470 -3.230409 3.826549 -1.707920 -17.757809 0.560791 -3.630749 -18.798134 -43.678121 -15.289127 -47.628852 8.569086 0.000000 0.000000 0.000000 -3.039381 -2.061190 3.641821 21.248194 36.802671 0.492027 19.506790 8.102114 -8.788773 -17.403739 60.547899 -19.216937 0.000000 0.000000 0.000000 
